# Blender 3.4.1
# www.blender.org
mtllib Fulg_8C.mtl
o Circle
v -0.834638 2.673720 -0.518122
v -0.866025 2.673720 -0.463757
v -0.866025 2.673720 0.463757
v -0.834638 2.673720 0.518122
v -0.031387 2.673720 0.981878
v 0.031388 2.673720 0.981878
v 0.834638 2.673720 0.518122
v 0.866025 2.673720 0.463757
v 0.866025 2.673720 -0.463757
v 0.834638 2.673720 -0.518122
v 0.031388 2.673720 -0.981878
v -0.031388 2.673720 -0.981878
v -0.031388 0.000000 -0.981878
v 0.031388 0.000000 -0.981878
v -0.866025 0.000000 -0.463757
v -0.834638 0.000000 -0.518122
v -0.834638 0.000000 0.518122
v -0.866025 0.000000 0.463757
v 0.031388 0.000000 0.981878
v -0.031387 0.000000 0.981878
v 0.866025 0.000000 0.463757
v 0.834638 0.000000 0.518122
v 0.834638 0.000000 -0.518122
v 0.866025 0.000000 -0.463757
v 0.031388 0.031289 -0.981878
v -0.031388 0.031289 -0.981878
v -0.834638 0.031289 -0.518122
v -0.866025 0.031289 -0.463757
v -0.866025 0.031289 0.463757
v -0.834638 0.031289 0.518122
v -0.031387 0.031289 0.981878
v 0.031388 0.031289 0.981878
v 0.834638 0.031289 0.518122
v 0.866025 0.031289 0.463757
v 0.866025 0.031289 -0.463757
v 0.834638 0.031289 -0.518122
vn 0.5000 -0.0000 -0.8660
vn -0.0000 1.0000 -0.0000
vn -1.0000 -0.0000 -0.0000
vn 1.0000 -0.0000 -0.0000
vn -0.5000 -0.0000 0.8660
vn 0.8660 -0.0000 -0.5000
vn 0.5000 -0.0000 0.8660
vn -0.0000 -1.0000 -0.0000
vn -0.0000 -0.0000 -1.0000
vn 0.8660 -0.0000 0.5000
vn -0.0000 -0.0000 1.0000
vn -0.8660 -0.0000 0.5000
vn -0.8660 -0.0000 -0.5000
vn -0.5000 -0.0000 -0.8660
vt 0.000000 0.000000
vt 0.000000 0.000000
vt 0.000000 0.000000
vt 0.000000 0.000000
vt 0.000000 0.000000
vt 0.000000 0.000000
vt 0.000000 0.000000
vt 0.000000 0.000000
vt 0.000000 0.000000
vt 0.000000 0.000000
vt 0.000000 0.000000
vt 0.000000 0.000000
vt 0.000000 0.000000
vt 0.000000 0.000000
vt 0.000000 0.000000
vt 0.000000 0.000000
vt 0.000000 0.000000
vt 0.000000 0.000000
vt 0.000000 0.000000
vt 0.000000 0.000000
vt 0.000000 0.000000
vt 0.000000 0.000000
vt 0.000000 0.000000
vt 0.000000 0.000000
vt 0.000000 0.000000
vt 0.000000 0.000000
vt 0.000000 0.000000
vt 0.000000 0.000000
vt 0.000000 0.000000
vt 0.000000 0.000000
vt 0.000000 0.000000
vt 0.000000 0.000000
vt 0.000000 0.000000
vt 0.000000 0.000000
vt 0.000000 0.000000
vt 0.000000 0.000000
s 0
usemtl Material.001
f 23/23/1 14/14/1 25/25/1 36/36/1
f 1/1/2 2/2/2 3/3/2 4/4/2 5/5/2 6/6/2 7/7/2 8/8/2 9/9/2 10/10/2 11/11/2 12/12/2
f 15/15/3 18/18/3 29/29/3 28/28/3
f 21/21/4 24/24/4 35/35/4 34/34/4
f 17/17/5 20/20/5 31/31/5 30/30/5
f 35/35/6 36/36/6 10/10/6 9/9/6
f 19/19/7 22/22/7 33/33/7 32/32/7
f 15/15/8 16/16/8 13/13/8 14/14/8 23/23/8 24/24/8 21/21/8 22/22/8 19/19/8 20/20/8 17/17/8 18/18/8
f 13/13/9 26/26/9 25/25/9 14/14/9
f 35/35/6 24/24/6 23/23/6 36/36/6
f 21/21/10 34/34/10 33/33/10 22/22/10
f 31/31/11 20/20/11 19/19/11 32/32/11
f 17/17/12 30/30/12 29/29/12 18/18/12
f 27/27/13 16/16/13 15/15/13 28/28/13
f 13/13/14 16/16/14 27/27/14 26/26/14
f 34/34/4 35/35/4 9/9/4 8/8/4
f 29/29/12 30/30/12 4/4/12 3/3/12
f 26/26/14 27/27/14 1/1/14 12/12/14
f 28/28/3 29/29/3 3/3/3 2/2/3
f 31/31/11 32/32/11 6/6/11 5/5/11
f 25/25/9 26/26/9 12/12/9 11/11/9
f 30/30/5 31/31/5 5/5/5 4/4/5
f 27/27/13 28/28/13 2/2/13 1/1/13
f 33/33/10 34/34/10 8/8/10 7/7/10
f 32/32/7 33/33/7 7/7/7 6/6/7
f 36/36/1 25/25/1 11/11/1 10/10/1
